<svg width="219" height="39" viewBox="0 0 219 39" xmlns="http://www.w3.org/2000/svg">
<path d="M192.912 23.1196L198.409 8.04899L203.906 23.1196H192.91H192.912ZM162.54 38.405H170.652V7.88649H182.955V0.594957H150.675V7.88649H162.543V38.405H162.54ZM131.949 39C138.972 39 143.924 36.3528 147.625 32.0859L141.637 26.954C139.35 29.4937 136.14 31.221 131.949 31.221C125.961 31.221 120.681 26.1966 120.681 19.445C120.681 12.6933 125.744 7.77903 131.949 7.77903C135.813 7.77903 138.916 9.39879 141.04 11.776L147.028 6.37419C143.436 2.37722 138.481 0 131.949 0C121.225 0 112.353 8.26391 112.353 19.5C112.353 30.7361 121.172 39 131.949 39ZM97.4903 38.405H105.602V0.594957H97.4903V38.405ZM72.9949 39C76.7508 39 79.0382 36.7302 80.2347 33.3833L91.9911 0.59758H83.3911L73.1587 30.5212L62.8153 0.59758H53.996L65.7525 33.3833C66.949 36.7329 69.2363 39 72.9922 39M16.8752 16.6379V38.405H24.9867V16.6379C24.9867 11.3435 28.6871 7.77903 33.806 7.77903C38.9248 7.77903 42.8418 11.3435 42.8418 16.6379V38.405H50.9533V16.6379C50.9533 6.32177 43.3331 0.00261953 33.9143 0.00261953C24.4954 0.00261953 16.8752 6.32177 16.8752 16.6379ZM0 38.405H8.11143V0.594957H0V38.405ZM191.552 5.18689L179.032 38.405H187.58L190.519 30.1411H206.359L209.352 38.405H218.116L205.596 5.23931C204.344 1.94476 202.004 0 198.573 0C195.142 0 192.801 1.88972 191.55 5.18427"/>
</svg>
